<?xml version="1.0" encoding="UTF-8"?>
<svg width="144.39" height="150" version="1.1" viewBox="0 0 144.39 150" xmlns="http://www.w3.org/2000/svg">
 <defs>
  <style>.a{fill:none;}.b{clip-path:url(#a);}.c{fill:#fff;}.d{fill:#d7b3fb;}.e{fill:#9afbd7;}</style>
  <clipPath id="a">
   <path class="a" transform="translate(0 997.3)" d="m0-739.16h248.48v-258.14h-248.48z"/>
  </clipPath>
 </defs>
 <g transform="matrix(.58109 0 0 .58109 0 579.52)">
  <g class="b" transform="translate(0 -997.3)" clip-path="url(#a)">
   <g transform="translate(229.14 123.21)">
    <path class="c" transform="translate(22.641,45.281)" d="m-16.781-33.561a5.86 5.86 0 0 1-5.86-5.86 5.86 5.86 0 0 1 5.86-5.86 5.86 5.86 0 0 1 5.86 5.86 5.86 5.86 0 0 1-5.86 5.86"/>
   </g>
   <g transform="translate(208.63 118.81)">
    <path class="c" transform="translate(39.621,79.242)" d="m-29.366-58.731a10.255 10.255 0 0 1-10.255-10.256 10.255 10.255 0 0 1 10.255-10.255 10.255 10.255 0 0 1 10.256 10.255 10.255 10.255 0 0 1-10.256 10.256"/>
   </g>
   <g transform="translate(172.74 111.12)">
    <path class="c" transform="translate(69.337 138.67)" d="m-51.39-102.78a17.947 17.947 0 0 1-17.947-17.947 17.947 17.947 0 0 1 17.947-17.947 17.947 17.947 0 0 1 17.947 17.947 17.947 17.947 0 0 1-17.947 17.947"/>
   </g>
   <g transform="translate(109.92 97.662)">
    <path class="c" transform="translate(121.34,242.68)" d="m-89.933-179.86a31.407 31.407 0 0 1-31.407-31.407 31.407 31.407 0 0 1 31.407-31.408 31.407 31.407 0 0 1 31.407 31.407 31.407 31.407 0 0 1-31.407 31.407"/>
   </g>
   <g transform="translate(0,74.107)">
    <path class="c" transform="translate(212.34 424.69)" d="m-157.38-314.76a54.963 54.963 0 0 1-54.963-54.963 54.963 54.963 0 0 1 54.963-54.963 54.963 54.963 0 0 1 54.963 54.963 54.963 54.963 0 0 1-54.963 54.963"/>
   </g>
   <g transform="translate(240.86 125.26)">
    <path class="c" transform="translate(14.716,29.433)" d="m-10.907-21.815a3.809 3.809 0 0 0 3.807-3.809 3.809 3.809 0 0 0-3.809-3.809 3.809 3.809 0 0 0-3.809 3.809 3.809 3.809 0 0 0 3.809 3.809"/>
   </g>
   <g transform="translate(7.618,49.102)">
    <path class="d" transform="translate(22.641,45.281)" d="m-16.781-33.561a5.86 5.86 0 0 0 5.86-5.86 5.86 5.86 0 0 0-5.86-5.86 5.86 5.86 0 0 0-5.86 5.86 5.86 5.86 0 0 0 5.86 5.86"/>
   </g>
   <g transform="translate(19.339,44.707)">
    <path class="d" transform="translate(39.621,79.242)" d="m-29.366-58.731a10.255 10.255 0 0 0 10.256-10.256 10.255 10.255 0 0 0-10.256-10.255 10.255 10.255 0 0 0-10.255 10.255 10.255 10.255 0 0 0 10.255 10.256"/>
   </g>
   <g transform="translate(39.85,37.016)">
    <path class="d" transform="translate(69.337 138.67)" d="m-51.39-102.78a17.947 17.947 0 0 0 17.947-17.947 17.947 17.947 0 0 0-17.947-17.947 17.947 17.947 0 0 0-17.947 17.947 17.947 17.947 0 0 0 17.947 17.947"/>
   </g>
   <g transform="translate(75.744,23.555)">
    <path class="d" transform="translate(121.34,242.68)" d="m-89.933-179.86a31.407 31.407 0 0 0 31.407-31.407 31.407 31.407 0 0 0-31.407-31.408 31.407 31.407 0 0 0-31.407 31.407 31.407 31.407 0 0 0 31.407 31.407"/>
   </g>
   <g transform="translate(138.56)">
    <path class="d" transform="translate(212.34 424.69)" d="m-157.38-314.76a54.963 54.963 0 0 0 54.963-54.963 54.963 54.963 0 0 0-54.963-54.962 54.963 54.963 0 0 0-54.963 54.962 54.963 54.963 0 0 0 54.963 54.963"/>
   </g>
   <g transform="translate(0,51.153)">
    <path class="d" transform="translate(14.716,29.433)" d="m-10.907-21.815a3.809 3.809 0 0 1-3.809-3.809 3.809 3.809 0 0 1 3.809-3.809 3.809 3.809 0 0 1 3.807 3.809 3.809 3.809 0 0 1-3.809 3.809"/>
   </g>
   <g transform="translate(7.618 197.32)">
    <path class="e" transform="translate(22.641,45.281)" d="m-16.781-33.561a5.86 5.86 0 0 0 5.86-5.86 5.86 5.86 0 0 0-5.86-5.86 5.86 5.86 0 0 0-5.86 5.86 5.86 5.86 0 0 0 5.86 5.86"/>
   </g>
   <g transform="translate(19.339 192.92)">
    <path class="e" transform="translate(39.621,79.242)" d="m-29.366-58.731a10.255 10.255 0 0 0 10.256-10.256 10.255 10.255 0 0 0-10.256-10.255 10.255 10.255 0 0 0-10.255 10.255 10.255 10.255 0 0 0 10.255 10.256"/>
   </g>
   <g transform="translate(39.85 185.23)">
    <path class="e" transform="translate(69.337 138.67)" d="m-51.39-102.78a17.947 17.947 0 0 0 17.947-17.947 17.947 17.947 0 0 0-17.947-17.947 17.947 17.947 0 0 0-17.947 17.947 17.947 17.947 0 0 0 17.947 17.947"/>
   </g>
   <g transform="translate(75.744 171.77)">
    <path class="e" transform="translate(121.34,242.68)" d="m-89.933-179.86a31.407 31.407 0 0 0 31.407-31.407 31.407 31.407 0 0 0-31.407-31.408 31.407 31.407 0 0 0-31.407 31.407 31.407 31.407 0 0 0 31.407 31.407"/>
   </g>
   <g transform="translate(138.56 148.21)">
    <path class="e" transform="translate(212.34 424.69)" d="m-157.38-314.76a54.963 54.963 0 0 0 54.963-54.963 54.963 54.963 0 0 0-54.963-54.962 54.963 54.963 0 0 0-54.963 54.962 54.963 54.963 0 0 0 54.963 54.963"/>
   </g>
   <g transform="translate(0 199.37)">
    <path class="e" transform="translate(14.716,29.433)" d="m-10.907-21.815a3.809 3.809 0 0 1-3.809-3.809 3.809 3.809 0 0 1 3.809-3.809 3.809 3.809 0 0 1 3.807 3.809 3.809 3.809 0 0 1-3.809 3.809"/>
   </g>
  </g>
 </g>
</svg>
